<?xml version="1.0" encoding="UTF-8"?>
<svg width="25px" height="25px" viewBox="0 0 25 25" version="1.1" xmlns="http://www.w3.org/2000/svg" xmlns:xlink="http://www.w3.org/1999/xlink">
    <!-- Generator: Sketch 46.2 (44496) - http://www.bohemiancoding.com/sketch -->
    <title>captainsmall</title>
    <desc>Created with Sketch.</desc>
    <defs>
        <circle id="path-1" cx="12.5" cy="12.5" r="12.5"></circle>
        <path d="M14.123436,8.45588235 L17.2794118,8.45588235 L17.2794118,4.27501676 C17.2794118,1.97068687 15.4066799,0.0941511768 13.0965482,0.0941511768 L4.18286359,0.0941511768 C1.86561736,0.0941511768 1.13686838e-13,1.96598846 1.13686838e-13,4.27501676 L1.13686838e-13,8.45588235 L3.15545791,8.45588235 C3.0183939,8.72817385 2.94117647,9.03609875 2.94117647,9.36216467 L2.94117647,12.6966589 C2.94117647,13.8042674 3.83582705,14.7058824 4.93943447,14.7058824 L12.3399773,14.7058824 C13.4439272,14.7058824 14.3382353,13.8063224 14.3382353,12.6966589 L14.3382353,9.36216467 C14.3382353,9.03634256 14.2608173,8.72834598 14.123436,8.45588235 Z" id="path-3"></path>
        <path d="M0,0 L3.87339211,0 L3.87339211,2.18185526 C3.87339211,3.25352931 3.01376086,4.12229279 1.93669605,4.12229279 L1.93669605,4.12229279 C0.867088359,4.12229279 0,3.24806051 0,2.18185526 L0,0 Z" id="path-5"></path>
        <linearGradient x1="50%" y1="0%" x2="50%" y2="100%" id="linearGradient-7">
            <stop stop-color="#FFD05B" offset="0%"></stop>
            <stop stop-color="#FAD16A" offset="100%"></stop>
        </linearGradient>
    </defs>
    <g id="Page-1" stroke="none" stroke-width="1" fill="none" fill-rule="evenodd">
        <g id="Desktop" transform="translate(-327.000000, -521.000000)">
            <g id="captain" transform="translate(327.000000, 521.000000)">
                <mask id="mask-2" fill="white">
                    <use xlink:href="#path-1"></use>
                </mask>
                <use id="Mask" fill="#EB8B2E" xlink:href="#path-1"></use>
                <g id="Volunteer" mask="url(#mask-2)">
                    <g transform="translate(3.308824, 4.411765)" id="illustration-copy">
                        <g transform="translate(0.183824, 0.000000)">
                            <g id="uniform" transform="translate(0.054650, 11.877568)">
                                <g id="Rectangle-9" transform="translate(0.367647, 0.000000)">
                                    <mask id="mask-4" fill="white">
                                        <use xlink:href="#path-3"></use>
                                    </mask>
                                    <use id="Mask" fill="#000000" xlink:href="#path-3"></use>
                                    <rect fill="#FFFFFF" opacity="0.266474185" mask="url(#mask-4)" x="-1.709062" y="-0.480509497" width="20.2205882" height="2.94117647"></rect>
                                </g>
                                <rect id="Rectangle-7" fill="#FFD05B" x="14.7058824" y="7.35294118" width="3.30882353" height="1.83823529"></rect>
                                <rect id="Rectangle-7-Copy" fill="#FFD05B" x="1.13686838e-13" y="7.35294118" width="3.30882353" height="1.83823529"></rect>
                                <g id="Group" transform="translate(6.379173, 0.000000)" fill="#FFD05B">
                                    <polygon id="Triangle" transform="translate(2.573529, 6.985294) scale(1, -1) translate(-2.573529, -6.985294) " points="2.57352941 3.30882353 4.77941176 10.6617647 0.367647059 10.6617647"></polygon>
                                    <path d="M2.57352941,6.61764706 C3.99485046,6.61764706 5.14705882,2.93698883 5.14705882,1.63043353 C5.14705882,1.05111446 4.92053647,0.520430499 4.54447174,0.109145811 C4.30594298,-0.151722116 4.88228828,2.22166936 2.57352941,2.18475885 C0.264770542,2.14784833 0.816303302,-0.130617733 0.582802862,0.13104773 C0.218591973,0.53919005 0,1.06134558 0,1.63043353 C0,2.93698883 1.15220836,6.61764706 2.57352941,6.61764706 Z" id="Oval-3"></path>
                                </g>
                            </g>
                            <g id="neck" transform="translate(7.070657, 10.047164)">
                                <mask id="mask-6" fill="white">
                                    <use xlink:href="#path-5"></use>
                                </mask>
                                <use id="Mask" fill="#FDDFD1" xlink:href="#path-5"></use>
                                <g id="neck-copy" mask="url(#mask-6)" fill="#FCCAB4">
                                    <g transform="translate(0.000000, -1.212439)" id="Rectangle-5">
                                        <path d="M0,0 L3.87339211,0 L3.87339211,2.18185526 C3.87339211,3.25352931 3.01376086,4.12229279 1.93669605,4.12229279 L1.93669605,4.12229279 C0.867088359,4.12229279 0,3.24806051 0,2.18185526 L0,0 Z"></path>
                                    </g>
                                </g>
                            </g>
                            <g id="head" transform="translate(4.196850, 1.102941)">
                                <path d="M4.81865772,1.30782903 C6.83499873,1.30782903 8.42649812,3.13686942 8.3747499,5.3345058 L8.3197498,7.67020472 C8.27099836,9.74059633 6.70404857,11.3771362 4.81865772,11.3771362 C2.93326683,11.3771362 1.36631704,9.74059633 1.31756564,7.67020472 L1.26256554,5.3345058 C1.21081846,3.13686942 2.80231671,1.30782903 4.81865772,1.30782903 L4.81865772,1.30782903 Z" id="2-copy-5" fill="#FDDFD1"></path>
                                <path d="M8.53675683,5.26209061 L8.47912627,7.69267647 C8.42804349,9.8471777 6.78613603,11.5502022 4.81055644,11.5502022 C2.83497567,11.5502022 1.19306939,9.8471777 1.14198543,7.69267647 L1.08435373,5.26209061 C1.03013152,2.97517485 2.69776179,1.07182987 4.81055644,1.07182987 C6.92335108,1.07182987 8.59098018,2.97517485 8.53675683,5.26209061 L8.53675683,5.26209061 Z M4.80246097,1.32356233 C2.81368491,1.32356233 1.2439435,3.13831322 1.29498221,5.31878038 L1.34923109,7.63623202 C1.39731587,9.69044812 2.94284506,11.3142031 4.80246097,11.3142031 C6.66207684,11.3142031 8.20760485,9.69044812 8.25568967,7.63623202 L8.30993737,5.31878038 C8.3609784,3.13831322 6.79123699,1.32356233 4.80246097,1.32356233 L4.80246097,1.32356233 Z" id="2-line"></path>
                                <path d="M1.34387044,5.48645219 C1.28708688,5.47397167 1.03058085,5.48480969 1.00858639,5.48645219 C0.964602829,5.48973843 0.906468966,5.55233367 0.860757034,5.56152918 C0.677723378,5.59831378 0.491006225,5.68774886 0.381347669,5.87234368 C0.326301241,5.96464605 0.289987698,6.08074916 0.280387291,6.22601445 C0.277985374,6.26233168 0.277251533,6.30047116 0.278304433,6.34051722 C0.279359134,6.38056324 0.282202437,6.4225158 0.286951206,6.46645923 C0.296443518,6.55434234 0.313584592,6.65019002 0.339124244,6.75463325 C0.338565876,6.75453036 0.315304014,7.07025004 0.476703051,7.43303326 C0.62843436,7.78772546 0.992789395,8.22343328 1.66551538,8.34794103 C1.58814475,7.44701498 1.58574115,6.52920154 1.50484658,5.62431983 C1.5041624,5.62434709 1.45748369,5.51146781 1.34387044,5.48645219 Z" id="Shape-11-copy" fill="#FDDFD1"></path>
                                <path d="M0.87750573,7.19041461 C0.87750573,7.19041461 0.834611149,7.22188118 0.797762413,7.22188118 C0.760913678,7.22188118 0.718541968,7.19041461 0.718541968,7.19041461 L0.639442098,6.41667635 C0.639442098,6.41667635 0.748579735,6.0356308 1.21169143,6.23700236 L1.2226388,6.45824163 C1.2226388,6.45824163 0.8163288,6.31836727 0.824730341,6.49254289 C0.832817719,6.6601961 0.87750573,7.19041461 0.87750573,7.19041461 L0.87750573,7.19041461 Z" id="Shape-4" fill="#E3BDAB"></path>
                                <path d="M8.2583474,5.46779618 C8.2589467,5.46782432 8.31160653,5.43315965 8.41104404,5.40735088 C8.46074425,5.3944753 8.52251151,5.38388409 8.59291511,5.38127209 C8.6104967,5.38062071 8.6285927,5.38046585 8.64711039,5.38089971 C8.66562651,5.38133222 8.68456431,5.38235346 8.70381573,5.38404789 C8.74231077,5.38743795 8.78207096,5.39353084 8.82207983,5.40301766 C8.98227745,5.44096743 9.14569885,5.53323501 9.24167624,5.7236763 C9.28985493,5.81890139 9.32163836,5.93868109 9.33003989,6.08854782 C9.33214224,6.12601513 9.33278481,6.16536242 9.33186415,6.20667667 C9.33094045,6.24799089 9.32845196,6.29127214 9.3242952,6.33660736 C9.31598792,6.427274 9.30098437,6.52615791 9.27863129,6.63390795 C9.27912095,6.63380173 9.29947985,6.95952179 9.15821695,7.33379441 C9.02541739,7.69972043 8.70651893,8.14922712 8.11772399,8.27767843 C8.18544138,7.34821848 8.18754525,6.40133724 8.2583474,5.46779618 L8.2583474,5.46779618 L8.2583474,5.46779618 Z" id="Shape-11-copy_1" fill="#FDDFD1"></path>
                                <path d="M8.80990358,7.22259799 C8.84691346,7.22259799 8.88947066,7.19115284 8.88947066,7.19115284 L8.96891718,6.41794009 C8.96891718,6.41794009 8.85930188,6.03715341 8.39416141,6.23838764 L8.38316648,6.45947723 C8.38316648,6.45947723 8.79125605,6.31969742 8.78281739,6.49375489 C8.77469525,6.66129442 8.72981134,7.19115284 8.72981134,7.19115284 C8.72981134,7.19115284 8.77289369,7.22259799 8.80990358,7.22259799 Z" id="Shape-4_1" fill="#E3BDAB"></path>
                                <path d="M6.77171531,6.95608209 C6.99550551,6.95608209 7.17692399,7.13218312 7.17692399,7.34941398 C7.17692399,7.56664484 6.99550551,7.74274592 6.77171531,7.74274592 C6.54792398,7.74274592 6.36650667,7.56664484 6.36650667,7.34941398 C6.36650667,7.13218312 6.54792398,6.95608209 6.77171531,6.95608209 L6.77171531,6.95608209 Z" id="Ellipse-3"></path>
                                <path d="M2.84929203,6.95608209 C3.07308223,6.95608209 3.25450071,7.13218312 3.25450071,7.34941398 C3.25450071,7.56664484 3.07308223,7.74274592 2.84929203,7.74274592 C2.6255007,7.74274592 2.44408339,7.56664484 2.44408339,7.34941398 C2.44408339,7.13218312 2.6255007,6.95608209 2.84929203,6.95608209 L2.84929203,6.95608209 Z" id="Ellipse-3-copy"></path>
                                <path d="M1.19214889,5.47715296 C1.19214889,5.47715296 1.31721204,3.58190476 2.52210975,2.73955946 C2.52210975,2.73955946 4.2618562,3.88833508 6.99856725,2.73955946 C6.99856725,2.73955946 8.20904009,3.2747373 8.39340552,5.47715296 L8.45838733,5.47715296 C8.45838733,5.47715296 8.80496258,2.95441697 7.90683287,1.95289448 C7.90683287,1.95289448 7.68559549,1.185897 6.51199574,0.63129814 L6.0903005,0.883031702 C6.0903005,0.883031702 5.80697383,0.546485201 5.05228116,0.127833301 C5.05228116,0.127833301 4.49411749,0.369240785 4.20889071,0.78863092 L3.75475791,0.50543193 C3.75475791,0.50543193 3.1201874,0.787402064 2.74917731,1.2920969 L2.06797694,1.38649543 L1.71115797,2.01582759 C1.71115797,2.01582759 0.859423922,2.68191089 1.12716595,5.41421872 L1.19214889,5.47715296 L1.19214889,5.47715296 Z" id="Shape-6-copy-3" fill="#5A5855"></path>
                                <path d="M8.58805409,5.47715296 L8.27994713,5.46141966 C8.09558166,3.25900403 6.99856725,2.86542567 6.99856725,2.86542567 C4.2618562,4.01420129 2.52210975,2.8496924 2.52210975,2.8496924 C1.4697138,3.72116917 1.30560733,5.49288623 1.30560733,5.49288623 L1.02991589,5.41421872 C0.762173865,2.68191089 1.61390788,1.96862779 1.61390788,1.96862779 L2.00314356,1.27636249 L2.7167606,1.18196396 C3.08777069,0.677269122 3.77096624,0.363832454 3.77096624,0.363832454 L4.19458594,0.63129814 C4.47981271,0.211908041 5.06983664,0.00196709165 5.06983664,0.00196709165 C5.8245293,0.420618992 6.10717196,0.741431082 6.10717196,0.741431082 L6.54441241,0.50543193 C7.71801216,1.06003079 8.03649964,1.93716122 8.03649964,1.93716122 C8.93462935,2.93868371 8.58805409,5.47715296 8.58805409,5.47715296 L8.58805409,5.47715296 Z M7.82525901,2.00009432 C7.82525901,2.00009432 7.68598039,1.31176321 6.51238064,0.757164349 L6.07475529,1.00889677 C6.07475529,1.00889677 5.79211259,0.672351411 5.03741997,0.253699511 C5.03741997,0.253699511 4.52843776,0.510840298 4.24321098,0.930230397 L3.75695945,0.63129814 C3.75695945,0.63129814 3.17167593,0.89753497 2.80066585,1.40222981 L2.15233197,1.49662948 L1.81195671,2.094494 C1.81195671,2.094494 1.10498482,2.61865034 1.17983003,4.73768783 L1.19603841,4.72195456 C1.19603841,4.72195456 1.42096236,3.40474135 2.52210975,2.59795998 C2.52210975,2.59795998 4.31048124,3.77820214 7.0471923,2.62942651 C7.0471923,2.62942651 8.05825875,3.09097609 8.40875946,4.73768783 C8.40875946,4.73768783 8.61680968,3.0439822 7.82525901,2.00009432 L7.82525901,2.00009432 Z" id="Shape-6-copy"></path>
                                <path d="M4.85377677,0.836064803 C4.8776238,0.853284645 4.86581854,0.869219359 4.8606399,0.890751463 C4.85291424,0.922875218 4.84374872,0.954671488 4.83858629,0.986726619 C4.8307621,1.03529935 4.82362884,1.08392945 4.82158149,1.13185064 C4.8198599,1.17214653 4.82060652,1.21230968 4.82132762,1.25221511 C4.82174378,1.27525967 4.8258072,1.29826482 4.82639146,1.32134652 C4.82662448,1.33055514 4.8292086,1.33979075 4.82947524,1.34916251 C4.83005722,1.35170577 4.83063921,1.35425014 4.83122119,1.35679226 C4.8315597,1.36857113 4.83474085,1.37980644 4.8350759,1.39156278 C4.83705483,1.40220731 4.83903611,1.41285409 4.84101504,1.42349862 C4.84392723,1.44036734 4.84534275,1.45797655 4.85065819,1.47440867 C4.85124135,1.47861628 4.85182447,1.48282614 4.85240759,1.48703379 C4.85662517,1.50009215 4.85800594,1.51357026 4.86225018,1.52667025 C4.8625539,1.52925739 4.86285766,1.53184564 4.86316137,1.53443389 C4.8693208,1.55332147 4.87209505,1.57319373 4.87823709,1.59196431 C4.88821066,1.62244392 4.89632585,1.65305297 4.90732655,1.68346396 C4.9146221,1.70363331 4.92091137,1.72476256 4.92825099,1.74505006 C4.94131526,1.78116423 4.95725813,1.81643552 4.97161738,1.85215697 C4.98035858,1.87390177 4.99208619,1.89399232 5.00144998,1.91564261 C5.02794955,1.97691247 5.06199968,2.03713129 5.09456014,2.09718915 C5.10507976,2.11659213 5.11662651,2.13443656 5.12828452,2.15338716 C5.13572154,2.16547885 5.1434437,2.17902787 5.15030337,2.19148192 C5.15409893,2.19837344 5.15885443,2.20356911 5.16298274,2.21026146 C5.17193264,2.22476812 5.18162913,2.24036075 5.19043528,2.25497656 C5.19857945,2.26849294 5.20777396,2.28003549 5.21676907,2.29321085 C5.22646324,2.30741145 5.23606351,2.32339455 5.24589098,2.33765813 C5.26296883,2.36244584 5.28108308,2.38640077 5.29799861,2.41088464 C5.31557262,2.43632054 5.33532729,2.45884071 5.35393425,2.48391313 C5.38999469,2.53250161 5.43214496,2.57911403 5.4710225,2.62788145 C5.48265966,2.64247813 5.49658186,2.65524053 5.50821439,2.66936572 C5.51401676,2.67641255 5.52371789,2.68256922 5.52764562,2.68997392 C5.52924432,2.6929887 5.53015786,2.6976352 5.53127195,2.7010483 C5.53306541,2.70654108 5.53260169,2.71332459 5.5326782,2.71914142 C5.53279991,2.72845355 5.53326713,2.73788607 5.53158729,2.74762923 C5.52984602,2.75772459 5.5232414,2.7688361 5.51894731,2.77880541 C5.51549835,2.78680767 5.50691017,2.7938624 5.5020515,2.7977583 C5.49796258,2.80103862 5.49627579,2.80408939 5.49210805,2.80726734 C5.481265,2.81553853 5.46899484,2.82234118 5.45712116,2.82579934 C5.44481275,2.82938351 5.42890467,2.81865347 5.41918151,2.80733376 C5.40217326,2.78753127 5.38090335,2.7693515 5.36458021,2.74949614 C5.36109068,2.74525025 5.35721397,2.74336646 5.35378586,2.7391566 C5.33494007,2.71601524 5.311806,2.69422431 5.29319323,2.67145771 C5.28894435,2.66626093 5.28428857,2.6633474 5.28016954,2.65814613 C5.26569898,2.63987524 5.24874405,2.62340823 5.23406137,2.60477162 C5.19725434,2.55805566 5.15756412,2.51291746 5.12428374,2.4658729 C5.11650244,2.45487393 5.10815191,2.44618745 5.10053062,2.43513557 C5.04662606,2.3569576 4.99253487,2.28013339 4.94934352,2.20047221 C4.9379776,2.17951063 4.92541763,2.16044863 4.91478093,2.1394139 C4.88458201,2.07969024 4.85641419,2.02000371 4.83057892,1.95976465 C4.82718443,1.95185019 4.82472093,1.94300058 4.82158381,1.93498147 C4.8074344,1.89882002 4.79461242,1.86310981 4.78190403,1.8268651 C4.76908319,1.79030194 4.76178878,1.75210364 4.7498073,1.71544818 C4.74728001,1.70771713 4.74650907,1.6993323 4.74394235,1.69140994 C4.74359221,1.68855159 4.74324211,1.68569326 4.74289201,1.68283605 C4.74011313,1.67423963 4.73980941,1.66510081 4.73709544,1.65670469 C4.73058937,1.63656797 4.72857796,1.61480628 4.72500846,1.59411481 C4.72163951,1.57458579 4.71703703,1.55461449 4.71647244,1.5346995 C4.71570383,1.53107706 4.71493517,1.52745233 4.71416773,1.52382878 C4.71379905,1.51089306 4.71043241,1.49810817 4.71010085,1.48534691 C4.7095235,1.46307207 4.70588327,1.44086925 4.70545666,1.41864504 C4.7049257,1.391008 4.70383015,1.36327081 4.70399939,1.33561013 C4.7041698,1.30791682 4.70653367,1.28084582 4.70817989,1.25291732 C4.71263858,1.17726005 4.72689234,1.1012382 4.7457161,1.02288917 C4.75254443,0.994468873 4.76349761,0.966661915 4.77271879,0.938193237 C4.77907181,0.918582095 4.78906624,0.899685477 4.79619373,0.880294884 C4.7980544,0.875234246 4.80094573,0.872227393 4.80293396,0.867137513 C4.80720484,0.85620038 4.81280432,0.842743659 4.82322772,0.835562899 C4.82789162,0.832351205 4.83861064,0.830631692 4.84410114,0.832208278 C4.84792569,0.833305491 4.85034171,0.836158207 4.85377677,0.836064803 L4.85377677,0.836064803 Z M4.09313103,1.37843805 C4.1103932,1.39055901 4.10903678,1.40831111 4.10944953,1.42327804 C4.10987614,1.43878851 4.11447049,1.45422807 4.11491335,1.46986343 C4.11677752,1.48066553 4.11864172,1.49146984 4.12050588,1.5022719 C4.12075281,1.51102135 4.12301809,1.51931957 4.12449158,1.52786083 C4.12601146,1.5366632 4.12666877,1.54551731 4.12945347,1.55412612 C4.13113096,1.56384786 4.13280849,1.57357184 4.13448601,1.58329362 C4.13725214,1.59185737 4.13756402,1.60101197 4.14028258,1.60942494 C4.14868993,1.63544376 4.15190352,1.66305156 4.1604558,1.68903435 C4.1695216,1.71658138 4.17614594,1.7450613 4.18598963,1.77236186 C4.19888352,1.80812495 4.21150146,1.84411647 4.22552916,1.87966797 C4.23270181,1.89784549 4.24123551,1.914838 4.24888234,1.93295361 C4.25472875,1.94680308 4.26028534,1.96189491 4.26693862,1.97543268 C4.29457199,2.0316543 4.32310268,2.08782639 4.35349754,2.14387698 C4.37756487,2.18826119 4.40627639,2.23061423 4.43264957,2.27437619 C4.44078101,2.2878689 4.44996739,2.29946771 4.45898336,2.31260934 C4.47933277,2.34227199 4.50098639,2.37311961 4.52182155,2.40326389 C4.54151946,2.43176185 4.56519145,2.45832306 4.58590721,2.48622342 C4.58929122,2.49078101 4.59321085,2.49324551 4.5964929,2.49784473 C4.60699394,2.51256073 4.62073991,2.52673541 4.63229475,2.54121732 C4.63810408,2.54849934 4.64546573,2.55355434 4.65075101,2.5611492 C4.66232211,2.57778048 4.66953883,2.60879467 4.66402398,2.628129 C4.65447124,2.66162568 4.62116306,2.68417844 4.59581005,2.69280414 C4.58815973,2.69540703 4.57622114,2.70011765 4.56791004,2.69770497 C4.55481212,2.69390357 4.54645464,2.68258386 4.53880318,2.67324024 C4.52891307,2.66116091 4.51738604,2.65239117 4.50781126,2.64033551 C4.49012016,2.61805842 4.46929659,2.59814789 4.45160435,2.57567725 C4.41455617,2.52862373 4.37661075,2.48310627 4.34370483,2.43522786 C4.26751828,2.32437807 4.20430096,2.21247838 4.15499889,2.09751438 C4.13453358,2.04979129 4.11805856,2.00057709 4.10158241,1.95205388 C4.09571514,1.93477663 4.09250384,1.91629194 4.08685801,1.89904621 C4.07911959,1.87540859 4.07568222,1.85103162 4.06808295,1.82753918 C4.06768647,1.82441075 4.06728881,1.82128235 4.06689232,1.81815392 C4.06565998,1.81290648 4.06383057,1.80784698 4.06291357,1.80255569 C4.06228407,1.79807797 4.06165456,1.79359915 4.06102506,1.78912032 C4.05815922,1.78025947 4.05748682,1.77110937 4.05592406,1.76204481 C4.05440536,1.75324248 4.05205312,1.74466069 4.05179693,1.73564677 C4.05065614,1.72986258 4.04951539,1.72407724 4.04837346,1.71829414 C4.04769293,1.69469815 4.04185697,1.67157372 4.04135963,1.64781006 C4.04124255,1.64220363 4.03939924,1.63626191 4.03925895,1.63066112 C4.03869087,1.60793276 4.03637689,1.58513802 4.03649169,1.56240856 C4.03662267,1.53652477 4.0363653,1.5101965 4.03803124,1.48430482 C4.03868742,1.47410371 4.04052841,1.46448998 4.04100022,1.45426634 C4.04151614,1.44305239 4.04355654,1.4323111 4.04507869,1.42071903 C4.04598179,1.41384662 4.04599341,1.40552591 4.04812422,1.39858037 C4.0502875,1.39152454 4.05772216,1.38011814 4.06459919,1.37719566 C4.06929208,1.37520272 4.07833358,1.37321874 4.08345543,1.37458152 C4.0872997,1.37560333 4.08967743,1.37852695 4.09313103,1.37843805 L4.09313103,1.37843805 Z M3.51189471,1.49602518 C3.53129464,1.50983302 3.52590846,1.52725542 3.5257798,1.5441703 C3.52557344,1.5713887 3.52841258,1.59855761 3.52911396,1.62565451 C3.52967391,1.64725638 3.53536847,1.66871086 3.53598407,1.69033301 C3.53731146,1.69719639 3.53864003,1.70406205 3.53996746,1.71092658 C3.54030829,1.72290801 3.54297705,1.73837459 3.54667757,1.74981695 C3.54702767,1.75267416 3.54737777,1.75553367 3.54772791,1.75839088 C3.54887329,1.76502582 3.55030735,1.77155275 3.55240572,1.7780403 C3.55289611,1.78170777 3.55338532,1.78537748 3.55387571,1.78904495 C3.55886423,1.80449011 3.56040264,1.82101449 3.56546421,1.83631116 C3.57757091,1.87289571 3.58719438,1.9103164 3.60041398,1.94685261 C3.62906757,2.02604562 3.66834391,2.10280796 3.71012551,2.17985611 C3.72377993,2.20503655 3.74077542,2.22846712 3.75457936,2.25348099 C3.76046634,2.2641469 3.76818968,2.27280745 3.77471315,2.28313575 C3.79254454,2.31136699 3.81321624,2.33952842 3.83260572,2.36750644 C3.85944149,2.40622915 3.89213179,2.44152861 3.92065204,2.47992157 C3.93064529,2.4933749 3.94326441,2.50505698 3.95297017,2.51802648 C3.96160123,2.52956113 3.97277121,2.53821268 3.98201211,2.54957967 C4.00031767,2.57209644 4.0233949,2.59354192 4.04281341,2.61599678 C4.05402164,2.62895839 4.06735023,2.63942396 4.07819215,2.65194443 C4.0903023,2.66593005 4.10553566,2.67711251 4.11746849,2.69059512 C4.12048617,2.69316312 4.12350385,2.69573223 4.12652157,2.69830024 C4.13869319,2.71228025 4.15568291,2.72466568 4.16823479,2.7386412 C4.17359194,2.74460545 4.17994846,2.74739515 4.18536476,2.75337405 C4.20297008,2.77280742 4.22780025,2.78855643 4.24587856,2.80817885 C4.25103867,2.81377964 4.25790643,2.81757089 4.26252164,2.82257412 C4.26447044,2.82392566 4.26642042,2.8252783 4.26837036,2.82662984 C4.27460862,2.83337843 4.284326,2.83955877 4.29065353,2.84636366 C4.29276462,2.84782771 4.29487688,2.8492929 4.29698915,2.85075694 C4.30732559,2.86189323 4.32325224,2.870708 4.33368605,2.88191291 C4.33644753,2.88382823 4.33920898,2.88574355 4.34197047,2.88765887 C4.35527243,2.90193145 4.37637306,2.91214499 4.38987674,2.92658863 C4.39593417,2.93102693 4.40199271,2.93546637 4.40805014,2.93990467 C4.41100639,2.94306463 4.41738953,2.94579466 4.42086171,2.94950265 C4.43005618,2.95932229 4.44555968,2.9670342 4.45553671,2.9764026 C4.46143414,2.98194151 4.47068198,2.98575636 4.47565891,2.99107133 C4.48004805,2.99575831 4.48800676,2.99889688 4.49188115,3.00303472 C4.50455247,3.01182246 4.51722607,3.02061244 4.52989617,3.02939903 C4.55988877,3.05019968 4.58977583,3.06969717 4.61880615,3.08963245 C4.63254748,3.09906836 4.64960794,3.10650345 4.65807554,3.11829243 C4.66285888,3.12495215 4.66476711,3.13452085 4.66727932,3.14179387 C4.67293214,3.15815398 4.67526584,3.17757721 4.67052193,3.19539686 C4.66907742,3.20082657 4.66616292,3.20449065 4.66406224,3.21017473 C4.66069791,3.21927977 4.65510193,3.2334106 4.6450901,3.241953 C4.63857825,3.24750876 4.63178931,3.25499783 4.62457605,3.25982328 C4.61345709,3.26725948 4.60133067,3.26329155 4.58776325,3.25783031 C4.58342395,3.2550586 4.57908348,3.25228579 4.57474419,3.24951409 C4.55393915,3.2408434 4.53450096,3.22229005 4.51361828,3.21354285 C4.50959546,3.21185822 4.50538369,3.20763257 4.50206108,3.20624055 C4.49512262,3.20166721 4.48818295,3.19709159 4.48124449,3.19251711 C4.47360693,3.18931216 4.46674612,3.18153388 4.4581301,3.17791369 C4.45092383,3.17488652 4.44355409,3.16923061 4.43647762,3.16432415 C4.43387845,3.16252251 4.43127929,3.16071859 4.42868009,3.15891692 C4.42172537,3.15599219 4.41350933,3.14981748 4.40702761,3.14532741 C4.39760589,3.13879373 4.38818185,3.1322578 4.3787601,3.12572298 C4.36864163,3.12145685 4.3574195,3.11163607 4.34770793,3.10490208 C4.3396623,3.09932269 4.32876477,3.09331005 4.32271197,3.086854 C4.31718904,3.08302336 4.31166489,3.07919161 4.30614195,3.07536212 C4.29460679,3.06736325 4.28323277,3.05947128 4.27320818,3.05109544 C4.26768524,3.04726481 4.26215995,3.04343417 4.25663698,3.03960353 C4.24864005,3.03103863 4.23477119,3.02455783 4.22683569,3.01608295 C4.22309923,3.01349245 4.21936277,3.01089966 4.21562631,3.00830916 C4.20983321,3.00209508 4.19983764,2.99665972 4.19410945,2.99053454 C4.19086107,2.98828163 4.1876115,2.98602758 4.18436198,2.98377467 C4.17996817,2.97904602 4.17212426,2.97409906 4.16772005,2.96937941 C4.16512084,2.96757663 4.16252168,2.96577385 4.15992252,2.96397218 C4.14470306,2.94757719 4.12241294,2.93519516 4.10755752,2.91909727 C4.10291565,2.91540281 4.09827374,2.91170721 4.09363186,2.90801275 C4.07442207,2.88704332 4.04845228,2.87020045 4.02991374,2.84955961 C4.02487303,2.84394533 4.01918895,2.84141332 4.01424564,2.83584067 C3.99710868,2.8165176 3.97523707,2.79930001 3.95874238,2.78022897 C3.95602147,2.77708479 3.95337246,2.77635445 3.95066431,2.77320128 C3.94288878,2.76414572 3.93284451,2.75479196 3.92531362,2.74563401 C3.92180787,2.74137123 3.91800763,2.7395696 3.91451927,2.73529557 C3.88842546,2.70333049 3.85774888,2.67480219 3.83247356,2.64273245 C3.78771136,2.58594027 3.74101308,2.53051877 3.70562275,2.47202286 C3.69760729,2.4587743 3.68804873,2.44768642 3.68026279,2.43446489 C3.66648784,2.41107145 3.6514655,2.38803702 3.6385264,2.36414957 C3.61827668,2.32677166 3.59932425,2.2890809 3.58088885,2.25142613 C3.56792194,2.22494029 3.55765624,2.19645137 3.54700563,2.16944113 C3.53826444,2.14726984 3.52992896,2.1257152 3.52190305,2.10353041 C3.51400698,2.08170121 3.50834953,2.05899423 3.50097515,2.03694784 C3.49347439,2.01452561 3.49040452,1.99073606 3.48310665,1.96820915 C3.48033475,1.95965214 3.48062225,1.94885119 3.47786658,1.94032342 C3.47106951,1.91929433 3.46943487,1.89644332 3.46570654,1.87483017 C3.44979383,1.78257654 3.44814297,1.68810935 3.45511737,1.59216797 C3.45672652,1.57002481 3.4614762,1.54905309 3.46522542,1.52642603 C3.46693425,1.51611798 3.47041797,1.50302138 3.48218038,1.49538938 C3.4859296,1.49295641 3.49785544,1.49103995 3.50221908,1.49216755 C3.50579903,1.49309255 3.5086034,1.49610284 3.51189471,1.49602518 L3.51189471,1.49602518 Z" id="new_vector_shape_done-copy" fill="#EBDFD9" opacity="0.2"></path>
                            </g>
                            <g id="hat" transform="translate(3.308824, 0.000000)">
                                <ellipse id="Oval-2" fill="#FFD05B" cx="5.69852941" cy="4.59558824" rx="3.86029412" ry="1.65441176"></ellipse>
                                <ellipse id="Oval" fill="url(#linearGradient-7)" cx="5.69852941" cy="2.20588235" rx="5.51470588" ry="2.20588235"></ellipse>
                                <path d="M1.83823529,3.7906863 C3.12438724,3.34689543 4.41053919,3.125 5.69669113,3.125 C6.98284308,3.125 8.26899503,3.34689543 9.55514697,3.7906863 L9.55514697,4.88970595 L1.83823529,4.88970595 L1.83823529,4.380813 L1.83823529,3.7906863 Z" id="Rectangle-3" fill="#F9B54C"></path>
                            </g>
                        </g>
                    </g>
                </g>
            </g>
        </g>
    </g>
</svg>