<?xml version="1.0" encoding="UTF-8"?>
<svg width="348px" height="105px" viewBox="0 0 348 105" version="1.1" xmlns="http://www.w3.org/2000/svg" xmlns:xlink="http://www.w3.org/1999/xlink">
    <!-- Generator: Sketch 46.2 (44496) - http://www.bohemiancoding.com/sketch -->
    <title>kamel</title>
    <desc>Created with Sketch.</desc>
    <defs></defs>
    <g id="Page-1" stroke="none" stroke-width="1" fill="none" fill-rule="evenodd">
        <g id="kamel">
            <g id="Group-13" transform="translate(0.000000, 43.000000)" fill="#FFFFFF">
                <path d="M154.344,29.6924 L168.781,29.6924 C168.781,25.1854 166.921,21.8384 161.713,21.8384 C157.42,21.8384 154.702,25.2564 154.344,29.6924 M179.354,29.9784 L179.354,35.4014 L154.344,35.4014 L154.344,37.1184 C154.344,41.7544 157.206,45.4744 162.214,45.4744 C166.491,45.4744 169.282,43.1134 169.282,38.2624 L179.283,38.2624 C179.283,48.3364 171.213,52.6144 162.771,52.6144 L161.641,52.6144 C151.497,52.6144 143.77,46.0464 143.77,34.6854 L143.77,32.6114 C143.77,21.2654 151.64,14.6834 161.641,14.6834 L162.771,14.6834 C171.499,14.6834 179.354,20.1924 179.354,29.9784" id="Fill-5"></path>
                <path d="M136.1301,26.4014 L136.1301,51.8984 L125.6991,51.8984 L125.6991,28.4764 C125.6991,24.4694 123.8391,22.2524 120.8491,22.2524 C117.5581,22.2524 114.9111,25.1854 114.9111,29.2634 L114.9111,51.8984 L104.4811,51.8984 L104.4811,28.4764 C104.4811,24.4694 102.5491,22.2524 99.5591,22.2524 C96.2681,22.2524 93.6931,25.1854 93.6931,29.2634 L93.6931,51.8984 L83.2761,51.8984 L83.2761,15.3984 L91.1311,15.3984 C91.5611,17.1874 91.9181,18.9754 92.2761,20.7644 C94.9091,16.6154 98.7001,14.6834 102.9781,14.6834 C107.5571,14.6834 111.5631,16.6864 113.5521,20.5494 C116.1991,16.4004 119.9191,14.6834 124.1971,14.6834 C130.7791,14.6834 136.1301,18.7614 136.1301,26.4014" id="Fill-7"></path>
                <path d="M62.9163,37.4766 L62.9163,35.5446 C54.1173,35.5446 49.4813,37.0466 49.4813,41.1966 C49.4813,44.4016 51.3413,45.4746 54.8323,45.4746 C58.4093,45.4746 62.9163,42.3266 62.9163,37.4766 M78.1253,44.6876 L78.1253,51.1256 C77.6243,51.3976 75.4073,52.6146 71.8443,52.6146 C66.4073,52.6146 63.8323,50.1966 63.4163,46.4756 C60.9133,49.5516 56.9783,52.6146 51.1263,52.6146 C45.2603,52.6146 38.6923,51.1256 38.6923,41.9686 C38.6923,31.4816 48.2653,29.6926 62.9163,29.6926 L62.9163,27.2596 C62.9163,24.2556 61.2703,21.8376 56.4063,21.8376 C52.1993,21.8376 50.0533,24.3986 50.0533,26.0436 L50.0533,26.6166 L39.9803,26.6166 C39.9093,26.1876 39.8373,25.8296 39.8373,25.3296 C39.8373,19.1906 46.3333,14.6836 55.9053,14.6836 L57.4073,14.6836 C67.9813,14.6836 73.1323,19.2616 73.1323,26.0436 L73.1323,42.8986 C73.1323,44.7586 74.1903,45.4746 75.1923,45.4746 C76.2653,45.4746 77.6963,44.9026 78.1253,44.6876" id="Fill-9"></path>
                <polygon id="Fill-11" points="21.9812 32.54 35.9742 51.898 23.5552 51.898 14.8982 39.979 10.8352 43.9 10.8352 51.898 0.4042 51.898 0.4042 0.476 10.8352 0.476 10.8352 32.396 23.6272 15.398 35.4022 15.398"></polygon>
            </g>
            <polygon id="Fill-14" fill="#FFFFFF" points="184.7805 44.9761 195.2105 44.8981 195.5895 95.5101 185.1585 95.5881"></polygon>
            <polygon id="Fill-15" fill="#F5A925" points="201.709 95.305 255.873 95.305 255.873 46.082 201.709 46.082"></polygon>
            <g id="Group-44" transform="translate(204.000000, 0.000000)">
                <path d="M89.9333,10.0933 L89.9333,95.7253 L80.3593,95.7253 L80.3593,14.3433 C80.3933,14.0393 80.4013,13.7273 80.3933,13.4063 C80.3763,12.6623 80.3683,11.9183 80.3593,11.1663 C80.3173,7.6003 80.3683,18.4083 80.3503,14.8343 C80.3503,14.7833 80.3503,14.7323 80.3593,14.6813 C80.3763,14.3183 80.4773,14.0143 80.6723,13.7013 C82.0493,11.4543 84.0353,10.0343 86.6293,9.6623 C87.7613,9.5023 88.8683,9.7213 89.9333,10.0933 Z" id="Fill-16" fill="#F5A925"></path>
                <path d="M137.4055,55.4277 C136.6115,55.7487 135.7915,56.0017 134.9215,56.2397 C136.2225,57.7847 137.0585,59.5177 137.6755,61.3847 C139.0195,65.4747 137.1515,68.6947 134.5665,70.5527 C133.1635,71.5497 131.6165,72.2267 129.9775,72.7077 C129.8505,72.7407 129.7245,72.7837 129.5895,72.8257 C129.6735,73.0457 129.8595,73.1057 130.0035,73.2147 C130.8565,73.8737 131.6255,74.6097 132.3605,75.3867 C134.9545,78.1577 134.4645,81.4457 132.8005,83.9717 C131.3385,86.1947 129.0655,87.2757 126.5805,87.9507 C125.9215,88.1287 125.2545,88.2647 124.5615,88.3317 C124.5865,88.5937 124.7985,88.6607 124.9245,88.7797 C128.2035,91.7377 129.2675,95.9107 127.6625,99.6807 C126.5975,102.1817 124.6455,103.7017 122.1115,104.5307 C121.9165,104.5987 121.6975,104.5897 121.4855,104.5897 L76.6245,104.5897 C75.3145,104.5897 74.1145,104.1507 72.9065,103.7197 C68.1405,102.0127 63.5525,99.8917 58.9725,97.7537 C57.5695,97.1027 56.1755,96.4357 54.7895,95.7597 C54.4605,95.6077 54.1385,95.5737 53.7925,95.5657 C53.1675,95.5477 51.9875,95.3047 51.4855,95.3047 C50.9535,95.3047 51.8745,94.2547 51.8745,93.6297 C51.8745,77.8877 51.8745,62.1537 51.8655,46.4197 C51.8575,45.8877 52.1065,46.1407 52.6475,46.0817 C55.9095,45.6767 58.9075,44.9517 62.3015,44.3747 C62.7455,44.2997 63.0795,44.1137 63.3745,43.7837 C64.6005,42.4147 65.6055,40.8767 66.5945,39.3387 C66.5945,39.3307 66.6025,39.3307 66.6025,39.3217 C66.8305,38.9667 67.0585,38.6127 67.2785,38.2577 L67.2785,38.2487 L80.3425,10.4987 C80.3345,10.9547 80.3505,13.5407 80.3505,14.8337 C80.3505,14.7827 80.3505,14.7327 80.3595,14.6817 L80.3595,10.4817 L88.2425,6.9847 L92.2565,5.2347 L92.2565,39.3217 L137.3295,39.3217 C138.4365,39.5077 139.3995,39.9897 140.2865,40.7077 C142.1285,42.1947 142.9485,44.2057 143.1345,46.5047 C143.4555,50.6957 141.4615,53.7717 137.4055,55.4277" id="Fill-18" fill="#F5A925"></path>
                <path d="M80.3596,10.4819 L80.3596,14.6819 C80.3506,14.7319 80.3506,14.7829 80.3506,14.8339 C80.3506,13.5409 80.3346,10.9549 80.3426,10.4989 L80.3596,10.4819 Z" id="Fill-20" fill="#F5A925"></path>
                <path d="M80.3596,11.1665 L80.3596,14.6815 C80.3506,14.7325 80.3506,14.7835 80.3506,14.8335 C80.3506,13.5415 80.3346,10.9555 80.3426,10.4995 C80.3506,10.6005 80.3506,10.8115 80.3596,11.1665" id="Fill-22" fill="#F5A925"></path>
                <polygon id="Fill-24" fill="#F5A925" points="80.359 39.322 89.933 39.322 89.933 21.577 80.359 21.577"></polygon>
                <path d="M94.9163,9.166 C94.9163,14.095 90.9203,18.091 85.9923,18.091 C81.0623,18.091 77.0673,14.095 77.0673,9.166 C77.0673,4.237 81.0623,0.242 85.9923,0.242 C90.9203,0.242 94.9163,4.237 94.9163,9.166" id="Fill-26" fill="#F5A925"></path>
                <path d="M76.136,69.3975 C76.136,77.9945 69.167,84.9625 60.57,84.9625 C51.973,84.9625 45.005,77.9945 45.005,69.3975 C45.005,60.8005 51.973,53.8325 60.57,53.8325 C69.167,53.8325 76.136,60.8005 76.136,69.3975" id="Fill-27" fill="#757575"></path>
                <path d="M69.157,69.3975 C69.157,74.1395 65.312,77.9835 60.57,77.9835 C55.828,77.9835 51.984,74.1395 51.984,69.3975 C51.984,64.6555 55.828,60.8105 60.57,60.8105 C65.312,60.8105 69.157,64.6555 69.157,69.3975" id="Fill-28" fill="#FFFFFF"></path>
                <path d="M60.0989,84.1025 C51.9939,84.0145 45.6809,77.5105 45.7379,69.2865 C45.7899,61.1915 52.3149,54.6715 60.3789,54.6565 C68.4009,54.6355 75.1229,61.4555 75.0759,69.5665 C75.0299,77.7125 68.3539,84.1905 60.0989,84.1025 M78.5749,66.6225 C77.3669,58.4035 71.2249,52.3705 62.8249,51.1475 C55.2219,50.0435 46.9869,54.3865 43.7269,61.2165 C40.1979,68.6125 41.9809,77.4545 48.0859,82.9525 C48.4019,83.2375 49.1119,83.3205 48.8479,83.9945 L47.8669,83.9945 C49.4869,85.2945 51.1029,86.6025 52.7889,87.8185 C55.5219,87.7975 58.2539,87.7595 60.9849,87.6785 C72.5629,87.3415 80.2429,77.9825 78.5749,66.6225" id="Fill-29" fill="#FFFFFF"></path>
                <path d="M33.9905,82.0488 C33.9715,81.9528 33.9845,81.8688 33.9895,81.7828 C33.9795,81.7258 33.9565,81.6788 33.9575,81.6138 C33.9605,81.3488 33.9735,81.0988 33.9965,80.8498 L32.4115,80.8498 C33.3335,78.2888 33.2405,75.7188 33.2375,73.1538 C33.2305,66.6528 33.2305,60.1478 33.2445,53.6458 C33.2445,53.0258 33.1045,52.3878 33.3985,51.7918 L32.7135,51.7918 C32.0965,52.3538 31.2425,52.3398 30.5365,52.6788 C29.7865,53.0388 29.3715,55.0028 30.0535,55.1918 C31.1195,55.4928 30.8035,56.1648 30.8075,56.7438 C30.8285,63.0808 30.8595,69.4188 30.8075,75.7558 C30.7565,82.4598 25.7045,88.3348 19.1435,89.4278 C12.4705,90.5418 5.8525,86.7818 3.5085,80.4888 C0.0805,71.2868 6.6375,62.1798 15.6555,61.4848 C16.8855,61.3918 16.6115,60.7238 16.6735,60.0248 C16.7515,59.1188 16.2685,59.0198 15.5285,59.0368 C8.2585,59.2048 1.1465,65.7758 0.4575,72.9798 C0.0845,74.4678 0.3345,79.0498 0.3545,79.3268 C0.7695,84.9688 7.9905,92.5438 15.2025,92.0538 C16.2475,91.9948 17.3005,92.1738 18.3385,91.9508 C23.5105,91.3548 27.6165,88.9238 30.5065,84.6158 C31.1985,83.5838 31.8975,83.3548 33.0015,83.3588 C33.4005,83.3598 33.7995,83.3618 34.1985,83.3628 C34.1425,82.9248 34.0745,82.4878 33.9905,82.0488" id="Fill-30" fill="#FFFFFF"></path>
                <path d="M33.9905,82.0488 C33.9715,81.9528 33.9845,81.8688 33.9895,81.7828 C33.9795,81.7258 33.9565,81.6788 33.9575,81.6138 C33.9605,81.3488 33.9735,81.0988 33.9965,80.8498 L32.4115,80.8498 C33.3335,78.2888 33.2405,75.7188 33.2375,73.1538 C33.2305,66.6528 33.2305,60.1478 33.2445,53.6458 C33.2445,53.0258 33.1045,52.3878 33.3985,51.7918 L32.7135,51.7918 C32.0965,52.3538 31.2425,52.3398 30.5365,52.6788 C29.7865,53.0388 29.3715,55.0028 30.0535,55.1918 C31.1195,55.4928 30.8035,56.1648 30.8075,56.7438 C30.8285,63.0808 30.8595,69.4188 30.8075,75.7558 C30.7565,82.4598 25.7045,88.3348 19.1435,89.4278 C12.4705,90.5418 5.8525,86.7818 3.5085,80.4888 C0.0805,71.2868 6.6375,62.1798 15.6555,61.4848 C16.8855,61.3918 16.6115,60.7238 16.6735,60.0248 C16.7515,59.1188 16.2685,59.0198 15.5285,59.0368 C8.2585,59.2048 1.1465,65.7758 0.4575,72.9798 C0.0845,74.4678 0.3345,79.0498 0.3545,79.3268 C0.7695,84.9688 7.9905,92.5438 15.2025,92.0538 C16.2475,91.9948 17.3005,92.1738 18.3385,91.9508 C23.5105,91.3548 27.6165,88.9238 30.5065,84.6158 C31.1985,83.5838 31.8975,83.3548 33.0015,83.3588 C33.4005,83.3598 33.7995,83.3618 34.1985,83.3628 C34.1425,82.9248 34.0745,82.4878 33.9905,82.0488 Z" id="Stroke-31" stroke="#FFFFFF" stroke-width="4"></path>
                <polygon id="Fill-32" fill="#FFFFFF" points="28.34 87.818 53.713 87.818 53.713 82.562 28.34 82.562"></polygon>
                <path d="M141.6218,47.4595 C141.6218,50.8645 139.0958,53.6355 135.9858,53.6355 C134.4648,53.6355 133.0788,52.9685 132.0648,51.8955 C131.5578,51.3545 130.8908,51.0085 130.1468,51.0085 L107.2388,51.0085 C105.8188,51.0085 104.6618,52.1665 104.6618,53.5855 L104.6618,93.9255 C104.6618,95.3455 103.5038,96.5025 102.0838,96.5025 L83.7818,96.5025 C82.3618,96.5025 81.2048,95.3455 81.2048,93.9255 L81.2048,14.4365 C79.7678,13.1355 78.8718,11.2595 78.8718,9.1645 C78.8718,5.2345 82.0578,2.0485 85.9958,2.0485 C89.9248,2.0485 93.1108,5.2345 93.1108,9.1645 C93.1108,11.9945 91.4708,14.4285 89.0878,15.5775 L89.0878,87.2335 C89.0878,88.6535 90.2458,89.8105 91.6648,89.8105 L94.6058,89.8105 C96.0258,89.8105 97.1838,88.6535 97.1838,87.2335 L97.1838,46.2675 C97.1838,44.8485 98.3408,43.6905 99.7608,43.6905 L130.3668,43.6905 C131.0678,43.6905 131.7188,43.3775 132.2168,42.8795 C133.2058,41.8905 134.5328,41.2825 135.9858,41.2825 C139.0958,41.2825 141.6218,44.0455 141.6218,47.4595" id="Fill-33" fill="#FEFDFD"></path>
                <polygon id="Fill-34" fill="#FFFFFF" points="29.093 84.913 35.536 84.913 35.536 45.323 29.093 45.323"></polygon>
                <polygon id="Stroke-35" stroke="#FFFFFF" stroke-width="2" points="29.093 84.913 35.536 84.913 35.536 45.323 29.093 45.323"></polygon>
                <path d="M90.7976,9.166 C90.7976,11.82 88.6456,13.972 85.9916,13.972 C83.3376,13.972 81.1866,11.82 81.1866,9.166 C81.1866,6.512 83.3376,4.36 85.9916,4.36 C88.6456,4.36 90.7976,6.512 90.7976,9.166" id="Fill-36" fill="#757575"></path>
                <path d="M88.7712,9.166 C88.7712,10.701 87.5272,11.946 85.9922,11.946 C84.4572,11.946 83.2122,10.701 83.2122,9.166 C83.2122,7.631 84.4572,6.387 85.9922,6.387 C87.5272,6.387 88.7712,7.631 88.7712,9.166" id="Fill-37" fill="#FFFFFF"></path>
                <polygon id="Fill-38" fill="#F5A925" points="24.791 80.516 28.34 80.516 28.34 46.082 24.791 46.082"></polygon>
                <polygon id="Fill-39" fill="#F5A925" points="34.198 82.563 40.078 82.563 40.078 46.083 34.198 46.083"></polygon>
                <path d="M140.7952,47.5229 C140.7952,50.1769 138.6442,52.3289 135.9892,52.3289 C133.3362,52.3289 131.1842,50.1769 131.1842,47.5229 C131.1842,44.8689 133.3362,42.7169 135.9892,42.7169 C138.6442,42.7169 140.7952,44.8689 140.7952,47.5229" id="Fill-40" fill="#757575"></path>
                <path d="M138.7693,47.708 C138.7693,49.243 137.5243,50.487 135.9893,50.487 C134.4543,50.487 133.2103,49.243 133.2103,47.708 C133.2103,46.173 134.4543,44.928 135.9893,44.928 C137.5243,44.928 138.7693,46.173 138.7693,47.708" id="Fill-41" fill="#FFFFFF"></path>
                <polygon id="Fill-42" fill="#FFFFFF" points="30.044 86.078 50.113 86.078 50.113 80.833 30.044 80.833"></polygon>
                <polygon id="Fill-43" fill="#FFFFFF" points="28.565 85.762 48.634 85.762 48.634 80.516 28.565 80.516"></polygon>
            </g>
        </g>
    </g>
</svg>