<?xml version="1.0" encoding="utf-8"?>
<!-- Generator: Adobe Illustrator 16.0.0, SVG Export Plug-In . SVG Version: 6.00 Build 0)  -->
<!DOCTYPE svg PUBLIC "-//W3C//DTD SVG 1.1//EN" "http://www.w3.org/Graphics/SVG/1.1/DTD/svg11.dtd">
<svg version="1.1" id="Layer_1" xmlns="http://www.w3.org/2000/svg" xmlns:xlink="http://www.w3.org/1999/xlink" x="0px" y="0px"
	 width="250px" height="128.334px" viewBox="0 0 250 128.334" enable-background="new 0 0 250 128.334" xml:space="preserve">
<rect x="-249" y="-547" fill="#2C3840" width="750" height="43.704"/>
<g>
	<defs>
		<polyline id="SVGID_1_" points="501,787 -249,787 -249,-547 501,-547 		"/>
	</defs>
	<clipPath id="SVGID_2_">
		<use xlink:href="#SVGID_1_"  overflow="visible"/>
	</clipPath>
	<path clip-path="url(#SVGID_2_)" fill="#FFFFFF" d="M431.938-535.906h38.062c1.619,0,2.934,1.381,2.934,3.083v13.358
		c0,1.71-1.313,3.083-2.934,3.083h-38.062c-1.619,0-2.934-1.38-2.934-3.083v-13.358
		C429.004-534.533,430.317-535.906,431.938-535.906 M431.938-534.878c-1.084,0-1.958,0.916-1.958,2.055v13.358
		c0,1.135,0.877,2.056,1.958,2.056h38.062c1.085,0,1.957-0.917,1.957-2.056v-13.358c0-1.134-0.876-2.055-1.957-2.055H431.938z"/>
	<path clip-path="url(#SVGID_2_)" fill="#8CC63F" d="M430.956-520.287v-11.714c0-1.302,0.65-1.953,1.952-1.953h13.667
		c1.302,0,1.952,0.651,1.952,1.953v11.714c0,1.302-0.65,1.952-1.952,1.952h-13.667C431.606-518.335,430.956-518.985,430.956-520.287
		"/>
	<path clip-path="url(#SVGID_2_)" fill="#FFFFFF" d="M476.838-525.69c0,1.721-1.272,3.145-2.929,3.382v-6.764
		C475.565-528.835,476.838-527.412,476.838-525.69"/>
</g>
<text transform="matrix(1 0 0 1 374.3359 -518.334)" fill="#FFFFFF" font-family="'Helvetica'" font-size="23.4287">65%</text>
<g>
	<defs>
		<polyline id="SVGID_3_" points="501,787 -249,787 -249,-547 501,-547 		"/>
	</defs>
	<clipPath id="SVGID_4_">
		<use xlink:href="#SVGID_3_"  overflow="visible"/>
	</clipPath>
	<path clip-path="url(#SVGID_4_)" fill="#FFFFFF" d="M358.44-525.147l5.188-5.201l-7.74-7.51h-0.184v10.445l-5.253-5.508
		l-1.496,1.563l6.321,6.211l-6.321,6.211l1.496,1.563l5.253-5.508v10.444h0.335l7.664-7.529
		C363.703-519.966,359.756-523.851,358.44-525.147C357.125-526.442,358.44-525.147,358.44-525.147 M361.097-530.348l-3.496,3.516
		v-6.662L361.097-530.348z M357.601-516.638v-6.947l3.342,3.64L357.601-516.638z"/>
</g>
<text transform="matrix(1 0 0 1 75.8594 -516.3818)" fill="#FFFFFF" font-family="'Helvetica'" font-size="23.4287">10:10 AM</text>
<text transform="matrix(1 0 0 1 -145.7993 -518.3262)" fill="#FFFFFF" font-family="'Helvetica'" font-size="23.4287">Mobily</text>
<g>
	<defs>
		<polyline id="SVGID_5_" points="501,787 -249,787 -249,-547 501,-547 		"/>
	</defs>
	<clipPath id="SVGID_6_">
		<use xlink:href="#SVGID_5_"  overflow="visible"/>
	</clipPath>
	<path clip-path="url(#SVGID_6_)" fill="#FFFFFF" d="M-214.31-524.68c0,3.58-1.79,5.369-5.369,5.369
		c-3.58,0-5.369-1.789-5.369-5.369c0-3.579,1.789-5.369,5.369-5.369C-216.1-530.049-214.31-528.259-214.31-524.68"/>
	<path clip-path="url(#SVGID_6_)" fill="#FFFFFF" d="M-200.644-524.68c0,3.58-1.79,5.369-5.369,5.369s-5.369-1.789-5.369-5.369
		c0-3.579,1.79-5.369,5.369-5.369S-200.644-528.259-200.644-524.68"/>
	<path clip-path="url(#SVGID_6_)" fill="#FFFFFF" d="M-186.977-524.68c0,3.58-1.79,5.369-5.369,5.369
		c-3.58,0-5.369-1.789-5.369-5.369c0-3.579,1.789-5.369,5.369-5.369C-188.767-530.049-186.977-528.259-186.977-524.68"/>
	<path clip-path="url(#SVGID_6_)" fill="#FFFFFF" d="M-178.679-519.311c-2.965,0-5.369-2.404-5.369-5.369s2.404-5.369,5.369-5.369
		s5.369,2.404,5.369,5.369S-175.714-519.311-178.679-519.311 M-178.679-520.287c2.426,0,4.393-1.967,4.393-4.393
		c0-2.426-1.967-4.393-4.393-4.393s-4.393,1.967-4.393,4.393C-183.072-522.254-181.105-520.287-178.679-520.287"/>
	<path clip-path="url(#SVGID_6_)" fill="#FFFFFF" d="M-165.012-519.311c-2.965,0-5.369-2.404-5.369-5.369s2.404-5.369,5.369-5.369
		s5.369,2.404,5.369,5.369S-162.047-519.311-165.012-519.311 M-165.012-520.287c2.426,0,4.393-1.967,4.393-4.393
		c0-2.426-1.967-4.393-4.393-4.393s-4.393,1.967-4.393,4.393C-169.405-522.254-167.438-520.287-165.012-520.287"/>
</g>
<text transform="matrix(1 0 0 1 -36.4761 448.1201)"><tspan x="0" y="0" fill="#FFFFFF" font-family="'NexaBold'" font-size="44.2846" letter-spacing="-7">Y</tspan><tspan x="23.604" y="0" fill="#FFFFFF" font-family="'NexaBold'" font-size="44.2846" letter-spacing="-2">o</tspan><tspan x="46.853" y="0" fill="#FFFFFF" font-family="'NexaBold'" font-size="44.2846" letter-spacing="-2">u</tspan><tspan x="71.165" y="0" fill="#FFFFFF" font-family="'NexaBold'" font-size="44.2846" letter-spacing="-2">r </tspan><tspan x="94.989" y="0" fill="#FFFFFF" font-family="'NexaBold'" font-size="44.2846" letter-spacing="-3">o</tspan><tspan x="117.308" y="0" fill="#FFFFFF" font-family="'NexaBold'" font-size="44.2846" letter-spacing="-2">w</tspan><tspan x="155.525" y="0" fill="#FFFFFF" font-family="'NexaBold'" font-size="44.2846" letter-spacing="-2">n p</tspan><tspan x="211.633" y="0" fill="#FFFFFF" font-family="'NexaBold'" font-size="44.2846" letter-spacing="-2">r</tspan><tspan x="228.683" y="0" fill="#FFFFFF" font-family="'NexaBold'" font-size="44.2846" letter-spacing="-2">i</tspan><tspan x="236.743" y="0" fill="#FFFFFF" font-family="'NexaBold'" font-size="44.2846" letter-spacing="-2">v</tspan><tspan x="259.814" y="0" fill="#FFFFFF" font-family="'NexaBold'" font-size="44.2846" letter-spacing="-3">a</tspan><tspan x="283.772" y="0" fill="#FFFFFF" font-family="'NexaBold'" font-size="44.2846" letter-spacing="-2">t</tspan><tspan x="299.271" y="0" fill="#FFFFFF" font-family="'NexaBold'" font-size="44.2846">e</tspan></text>
<text transform="matrix(1 0 0 1 55.0601 489.4375)"><tspan x="0" y="0" fill="#FFFFFF" font-family="'NexaBold'" font-size="44.2846" letter-spacing="-2">d</tspan><tspan x="25.153" y="0" fill="#FFFFFF" font-family="'NexaBold'" font-size="44.2846" letter-spacing="-2">riv</tspan><tspan x="73.378" y="0" fill="#FFFFFF" font-family="'NexaBold'" font-size="44.2846" letter-spacing="-2">e</tspan><tspan x="96.982" y="0" fill="#FFFFFF" font-family="'NexaBold'" font-size="44.2846" letter-spacing="-2">r..</tspan><tspan x="131.124" y="0" fill="#FFFFFF" font-family="'NexaBold'" font-size="44.2846">.</tspan></text>
<text transform="matrix(1 0 0 1 -71.2134 203.1104)"><tspan x="0" y="0" fill="#F6921E" font-family="'NexaLight'" font-size="89.0491" letter-spacing="-4">kaspe</tspan><tspan x="224.043" y="0" fill="#F6921E" font-family="'NexaLight'" font-size="89.0491">r</tspan></text>
<text transform="matrix(1 0 0 1 182.8428 203.1104)"><tspan x="0" y="0" fill="#FFFFFF" font-family="'NexaLight'" font-size="89.0491" letter-spacing="-4">c</tspan><tspan x="40.605" y="0" fill="#FFFFFF" font-family="'NexaLight'" font-size="89.0491" letter-spacing="-5">a</tspan><tspan x="89.492" y="0" fill="#FFFFFF" font-family="'NexaLight'" font-size="89.0491">b</tspan></text>
<g>
	<defs>
		<polyline id="SVGID_7_" points="501,787 -249,787 -249,-547 501,-547 		"/>
	</defs>
	<clipPath id="SVGID_8_">
		<use xlink:href="#SVGID_7_"  overflow="visible"/>
	</clipPath>
	<path clip-path="url(#SVGID_8_)" fill="#FFFFFF" d="M219.519,66.759h-47.585c-2.021,0-3.659,1.639-3.659,3.66
		s1.639,3.659,3.659,3.659h47.585c8.313,0,15.075,6.763,15.075,15.076s-6.763,15.076-15.075,15.076h-53.417
		c-2.021,0-3.66,1.638-3.66,3.659s1.639,3.66,3.66,3.66h53.417c12.349,0,22.395-10.046,22.395-22.395S231.867,66.759,219.519,66.759
		"/>
	<path clip-path="url(#SVGID_8_)" fill="#FCFCFC" d="M84.627,104.229H31.21c-8.313,0-15.076-6.763-15.076-15.076
		c0-8.313,6.763-15.075,15.076-15.075h47.584c2.02,0,3.659-1.639,3.659-3.66s-1.639-3.66-3.659-3.66H31.21
		c-12.349,0-22.396,10.047-22.396,22.395c0,12.349,10.047,22.395,22.396,22.395h53.417c2.021,0,3.66-1.638,3.66-3.659
		S86.648,104.229,84.627,104.229"/>
	<path clip-path="url(#SVGID_8_)" fill="#FFFFFF" d="M145.483,92.792c-8.324,0-15.096,6.772-15.096,15.097
		c0,8.323,6.771,15.096,15.096,15.096s15.096-6.773,15.096-15.096C160.579,99.564,153.808,92.792,145.483,92.792 M145.483,115.667
		c-4.289,0-7.777-3.489-7.777-7.777c0-4.289,3.488-7.778,7.777-7.778s7.778,3.489,7.778,7.778
		C153.262,112.178,149.772,115.667,145.483,115.667"/>
	<path clip-path="url(#SVGID_8_)" fill="#FFFFFF" d="M105.486,92.792c-8.324,0-15.096,6.772-15.096,15.097
		c0,8.323,6.772,15.096,15.096,15.096c8.324,0,15.096-6.773,15.096-15.096C120.582,99.564,113.81,92.792,105.486,92.792
		 M105.486,115.667c-4.289,0-7.777-3.489-7.777-7.777c0-4.289,3.488-7.778,7.777-7.778s7.777,3.489,7.777,7.778
		C113.263,112.178,109.775,115.667,105.486,115.667"/>
	<path clip-path="url(#SVGID_8_)" fill="#FFFFFF" d="M196.911,59.737c0.896,1.812,3.092,2.553,4.903,1.657s2.554-3.091,1.658-4.902
		c-7.061-14.27-17.912-26.326-31.382-34.865c-13.846-8.776-29.867-13.415-46.334-13.415c-16.758,0-33.021,4.793-47.027,13.859
		c-13.64,8.83-24.501,21.249-31.409,35.915c-0.861,1.828-0.077,4.009,1.752,4.87c0.504,0.237,1.034,0.35,1.556,0.35
		c1.373-0.001,2.69-0.777,3.313-2.101c6.325-13.431,16.272-24.803,28.765-32.889c12.82-8.299,27.706-12.685,43.05-12.685
		c15.077,0,29.744,4.246,42.415,12.278C180.51,35.629,190.447,46.67,196.911,59.737"/>
	<path clip-path="url(#SVGID_8_)" fill="#FFFFFF" d="M246.815,69.422c-0.005-0.624-0.446-1.249-1.317-1.249h-1.764v4.01h0.31v-1.518
		h1.094l1.386,1.518h0.407l-1.415-1.535C246.393,70.648,246.821,70.076,246.815,69.422 M244.044,70.374V68.46h1.454
		c0.665,0,0.985,0.487,0.98,0.956c-0.006,0.561-0.315,0.957-1.014,0.957H244.044z"/>
	<path clip-path="url(#SVGID_8_)" fill="#FFFFFF" d="M245.332,66.759c-1.886,0-3.42,1.534-3.42,3.42c0,1.886,1.534,3.42,3.42,3.42
		c1.887,0,3.42-1.534,3.42-3.42C248.752,68.292,247.219,66.759,245.332,66.759 M245.332,73.312c-1.728,0-3.133-1.405-3.133-3.133
		c0-1.727,1.405-3.133,3.133-3.133c1.729,0,3.134,1.406,3.134,3.133C248.466,71.907,247.061,73.312,245.332,73.312"/>
</g>
<g>
	<defs>
		<polyline id="SVGID_9_" points="501,787 -249,787 -249,-547 501,-547 		"/>
	</defs>
	<clipPath id="SVGID_10_">
		<use xlink:href="#SVGID_9_"  overflow="visible"/>
	</clipPath>
	<path clip-path="url(#SVGID_10_)" fill="#FFFFFF" d="M-42.606-526.331l-5.18-8.854c-0.462-0.79-1.602-0.79-2.063,0l-5.18,8.854
		c-0.466,0.797,0.109,1.799,1.032,1.799h2.137v8.95c0,1.104,0.896,2,2,2h2.085c1.105,0,2-0.896,2-2v-8.95h2.137
		C-42.714-524.532-42.14-525.534-42.606-526.331"/>
	<path clip-path="url(#SVGID_10_)" fill="#FFFFFF" d="M-68.389-523.028l5.18,8.854c0.462,0.79,1.602,0.79,2.063,0l5.18-8.854
		c0.466-0.797-0.109-1.799-1.031-1.799h-2.138v-8.95c0-1.104-0.896-2-2-2h-2.085c-1.105,0-2,0.896-2,2v8.95h-2.137
		C-68.28-524.828-68.854-523.826-68.389-523.028"/>
	<polyline clip-path="url(#SVGID_10_)" fill="none" stroke="#2C3840" stroke-width="0.5" stroke-miterlimit="10" points="501,787 
		-249,787 -249,-547 501,-547 	"/>
</g>
</svg>
